<svg width="200" height="50" viewBox="0 0 200 50" fill="none" xmlns="http://www.w3.org/2000/svg">
<path d="M162.994 49.7079H1.69492C2.25989 47.1655 5.48023 41.2333 13.8418 37.8435C24.2938 33.6062 27.3192 35.3011 35.8757 24.5666C51.4124 5.07513 74.8588 5.3576 87.8531 21.1768C95.9746 31.0638 106.497 39.3988 121.186 37.8435C140.395 35.8096 159.887 40.3858 162.994 49.7079Z" fill="white"/>
<path d="M200 49.7175H0C0.700525 46.5656 4.69352 39.2113 15.0613 35.0088C28.021 29.7557 31.7724 31.857 42.3818 18.549C61.6462 -5.61525 90.718 -5.26505 106.83 14.3466C116.9 26.6038 129.947 36.937 148.161 35.0088C171.979 32.4873 196.147 38.1607 200 49.7175Z" fill="white" fill-opacity="0.7"/>
</svg>
