<svg width="180" height="150" viewBox="0 0 180 150" fill="none" xmlns="http://www.w3.org/2000/svg">
<ellipse cx="65.5" cy="134.5" rx="65.5" ry="11.5" fill="#808080"/>
<rect width="127.794" height="75.7636" rx="33.8786" transform="matrix(-1 0 0 1 158.071 53.8564)" fill="#FCB933"/>
<rect width="100.41" height="59.3329" rx="29.6665" transform="matrix(4.37114e-08 1 1 -4.37114e-08 30.2767 27.3841)" fill="#FCB933"/>
<mask id="mask0" style="mask-type:alpha" maskUnits="userSpaceOnUse" x="30" y="20" width="65" height="50">
<path d="M94.1345 58.0089C94.1345 58.0089 94.1029 56.442 92.9344 50.6921C90.629 39.3478 89.747 23.1712 86.9396 22.3458C82.06 20.9112 77.878 28.3518 77.878 28.3518C77.878 28.3518 71.6988 23.9692 60.6493 23.9692C49.7713 23.9692 44.2655 27.2204 44.2655 27.2204C44.2655 27.2204 39.0113 19.9693 35.5021 20.718C31.9929 21.4667 30.1889 62.5646 30.1889 62.5646C30.1889 62.5646 33.2883 70.9101 61.8356 69.9037C90.3829 68.8974 94.1345 58.0089 94.1345 58.0089Z" fill="url(#paint0_linear)"/>
</mask>
<g mask="url(#mask0)">
<path d="M94.8993 65.3959C94.8993 65.3959 94.1299 56.3387 92.9659 50.6109C90.6694 39.3104 89.7907 23.1961 86.9942 22.3739C82.1334 20.9449 77.9675 28.3568 77.9675 28.3568C77.9675 28.3568 71.8122 23.991 60.8052 23.991C49.9692 23.991 44.4846 27.2297 44.4846 27.2297C44.4846 27.2297 39.2507 20.0066 35.755 20.7524C32.2593 21.4982 29.6171 64.0314 29.6171 64.0314C29.6171 64.0314 27.7092 81.7734 60.8052 81.7735C93.9013 81.7735 94.8993 65.3959 94.8993 65.3959Z" fill="#FCB933"/>
<path d="M70.125 24.1347C70.125 24.1347 69.5299 27.3245 69.48 29.1308C69.4215 31.2462 68.0896 33.3723 66.3847 33.4047C63.4402 33.4973 62.9066 30.6951 63.0166 28.314C63.1225 26.0237 64.1327 23.0838 64.1327 23.0838C64.1327 23.0838 65.7746 23.3359 67.4165 23.588C68.6819 23.8368 70.125 24.1347 70.125 24.1347Z" fill="#A96331"/>
<path d="M58.7916 23.5863C58.7916 23.5863 58.4733 26.8156 58.579 28.6194C58.7027 30.7321 57.5588 32.9649 55.863 33.1439C52.9374 33.4896 52.1646 30.7437 52.0693 28.362C51.9776 26.071 52.7311 23.0551 52.7311 23.0551C52.7311 23.0551 54.3886 23.165 56.0461 23.2748C57.3282 23.4138 58.7916 23.5863 58.7916 23.5863Z" fill="#A96331"/>
</g>
<path d="M67.251 114.908C68.9559 114.786 70.5186 114.505 71.9497 114.092C83.3696 110.801 99.5409 101.35 109.568 107.73C113.912 110.495 117.205 115.692 114.502 120.075C107.452 131.507 83.6646 129.122 67.251 129.513H31.9977C29.7886 129.513 27.8953 127.665 28.5892 125.568C32.0342 115.155 50.0117 116.139 67.251 114.908Z" fill="#FCB933"/>
<mask id="mask1" style="mask-type:alpha" maskUnits="userSpaceOnUse" x="32" y="58" width="130" height="77">
<path d="M161.071 92.735C161.071 74.0243 145.903 58.8564 127.192 58.8564H65.8786C47.168 58.8564 32 74.0243 32 92.735V100.741C32 119.452 47.168 134.62 65.8786 134.62H127.192C145.903 134.62 161.071 119.452 161.071 100.741V92.735Z" fill="#FCB933"/>
</mask>
<g mask="url(#mask1)">
<path d="M58.9899 122C41.82 118 34.4134 108.333 29.7001 102L31.2151 134L61.5149 140.5L153.424 134L146.859 105.5C139.991 113.5 134.739 117.342 128.679 120.5C115.55 127.342 73.4475 125.368 58.9899 122Z" fill="#FFE27C"/>
</g>
<mask id="mask2" style="mask-type:alpha" maskUnits="userSpaceOnUse" x="45" y="52" width="144" height="139">
<path d="M124.817 62.8499C124.817 62.8499 161.289 87.5339 141.546 123.499C124.11 155.311 78.1104 151.491 82.3243 172.213C86.1175 190.669 150.224 158.525 160.386 129.401C175.031 87.3911 142.509 61.0296 142.509 61.0296L124.817 62.8499Z" fill="#F5B31C"/>
</mask>
<g mask="url(#mask2)">
<path d="M124.818 62.8517C124.818 62.8517 161.291 87.5357 141.547 123.501C124.112 155.312 78.1119 151.493 82.3259 172.215C86.1191 190.671 150.225 158.527 160.387 129.403C175.032 87.3929 142.511 61.0314 142.511 61.0314L124.818 62.8517Z" fill="#FCB933"/>
<path d="M117.196 140.044C117.196 140.044 113.109 147.215 119.115 156.632C124.966 166.042 131.014 166.32 131.014 166.32C131.014 166.32 84.4635 190.828 76.0569 177.505C67.4953 164.174 117.196 140.044 117.196 140.044Z" fill="#FFE1B1"/>
<path d="M128.551 111.981C128.551 111.981 134.219 127.89 145.062 132.262C155.817 136.707 162.974 139.36 162.974 139.36L157.942 149.121C157.942 149.121 145.016 150.231 138.174 144.417C131.331 138.602 123.226 125.99 123.226 125.99L128.551 111.981Z" fill="#A96331"/>
<path d="M129.462 96.4543C129.462 96.4543 142.332 107.116 154.346 105.81C166.448 104.429 174.218 103.392 174.218 103.392L174.227 114.005C174.227 114.005 162.901 121.076 153.924 119.269C144.86 117.536 131.271 110.791 131.271 110.791L129.462 96.4543Z" fill="#A96331"/>
<path d="M128.609 81.4181C128.609 81.4181 144.581 86.3367 155.178 80.527C165.828 74.6161 172.608 70.6814 172.608 70.6814L176.682 80.4813C176.682 80.4813 168.929 91.3515 159.945 93.1213C150.908 94.9923 135.772 93.9681 135.772 93.9681L128.609 81.4181Z" fill="#A96331"/>
</g>
<path d="M68 55H130.5" stroke="#A96331" stroke-width="2"/>
<defs>
<linearGradient id="paint0_linear" x1="131.506" y1="44.0009" x2="73.4436" y2="153.712" gradientUnits="userSpaceOnUse">
<stop stop-color="#F5B31C"/>
<stop offset="1" stop-color="#F5B81C"/>
</linearGradient>
</defs>
</svg>
