<svg width="130" height="141" viewBox="0 0 130 141" fill="none" xmlns="http://www.w3.org/2000/svg">
<ellipse cx="74" cy="129.5" rx="54" ry="11.5" fill="#909090"/>
<path d="M37.7129 107.683C47.8171 115.643 69.32 119.695 69.32 119.695L68.0045 128.087C68.0045 128.087 49.3603 127.802 30.8344 114.013C13.5984 101.184 12.072 78.4653 12.8736 74.9022C13.6753 71.339 17.461 69.9266 19.9066 72.4474C22.3523 74.9682 21.9147 95.2365 37.7129 107.683Z" fill="#3E3025"/>
<circle r="4.33049" transform="matrix(-0.875135 -0.483879 -0.483879 0.875135 16.791 74.6706)" fill="white"/>
<mask id="mask0" style="mask-type:alpha" maskUnits="userSpaceOnUse" x="44" y="35" width="74" height="94">
<path d="M64.2359 35.9459L117.645 37.3894L109.386 107.041C107.922 119.389 97.4521 128.691 85.017 128.691H72.1837C53.6122 128.691 40.4099 110.62 46.0551 92.9273L64.2359 35.9459Z" fill="#FFA311"/>
</mask>
<g mask="url(#mask0)">
<rect x="43.3053" y="34.8634" width="83.001" height="93.8272" fill="#3E3025"/>
<path d="M69.082 16.0976L127.55 29.2558L110.395 107.003C106.829 123.164 90.8501 133.319 74.7046 129.686C58.5591 126.052 48.3612 110.006 51.927 93.8453L69.082 16.0976Z" fill="white"/>
</g>
<path d="M123.504 119.308C121.339 119.308 116.562 48.4353 116.562 42.8023H105.375C105.375 59.5211 107.625 128.781 120.617 128.781H127.995C129.1 128.781 130.01 127.885 129.976 126.781C129.839 122.341 128.954 119.308 123.504 119.308Z" fill="white"/>
<path d="M95.632 119.308C91.5121 119.308 88.056 68.1948 87.1836 50.5256C87.0312 47.4401 84.4667 44.9679 81.3775 44.9679C78.2883 44.9679 75.7879 47.4571 75.8738 50.5451C76.5005 73.0964 80.5488 128.781 92.3841 128.781H101.291C102.396 128.781 103.311 127.884 103.221 126.783C102.86 122.342 101.083 119.308 95.632 119.308Z" fill="white"/>
<path d="M76 55C76 55 81.4859 115.353 88 121" stroke="#EAEAEA" stroke-width="2"/>
<path d="M88 54C88 54 91.5217 107.798 97 117" stroke="#EAEAEA" stroke-width="2"/>
<path d="M68.5663 91.1594C68.5663 91.1594 81.5578 100.185 79.0317 120.029" stroke="#EAEAEA" stroke-width="2"/>
<path d="M104.292 54.3508C105.736 70.5901 109.345 102.347 109.345 102.347" stroke="#EAEAEA" stroke-width="2"/>
<mask id="mask1" style="mask-type:alpha" maskUnits="userSpaceOnUse" x="63" y="1" width="57" height="43">
<path d="M118.006 2.02374C115.675 2.02373 106.984 7.23747 106.984 7.23747C106.984 7.23747 103.412 5.44924 93.8271 4.61678C84.8052 3.83324 79.0312 5.99617 79.0312 5.99617C79.0312 5.99617 73.2572 0.220675 69.6484 1.30509C66.0397 2.38951 63.8746 39.5546 63.8746 39.5546L116.923 43.8879C117.668 39.7143 121.185 2.02375 118.006 2.02374Z" fill="url(#paint0_linear)"/>
</mask>
<g mask="url(#mask1)">
<ellipse cx="81.4046" cy="29.0319" rx="47.5" ry="47.5" fill="#3E3025"/>
<path d="M95.3217 0.722149C95.3217 0.722149 95.9833 3.55091 95.9529 5.41165C95.922 7.31008 96.2601 9.501 98.0213 9.96139C99.9847 10.4746 101.102 7.92112 101.143 5.78539C101.185 3.64965 100.821 0.628353 100.821 0.628353C100.821 0.628353 99.151 0.515209 97.9467 0.530407C96.7649 0.63073 95.3217 0.722149 95.3217 0.722149Z" fill="#79685C"/>
<path d="M87.3656 0.592922C87.3656 0.592922 88.0271 3.42168 87.9967 5.28242C87.9658 7.18086 88.3039 9.37177 90.0651 9.83216C92.0285 10.3454 93.1457 7.7919 93.1872 5.65616C93.2288 3.52043 92.8644 0.499126 92.8644 0.499126C92.8644 0.499126 91.1948 0.385982 89.9905 0.40118C88.8087 0.501504 87.3656 0.592922 87.3656 0.592922Z" fill="#79685C"/>
<path d="M93.6863 63.3038C125.043 60.5001 124.518 43.6778 122.85 36.8889C106.502 40.4205 94.8383 18.6006 94.8383 18.6006C94.8383 18.6006 86.8008 38.8024 62.8222 35.9094C51.0193 34.4854 62.3294 66.1074 93.6863 63.3038Z" fill="white"/>
</g>
<path d="M97.963 31.0915C96.9408 32.6585 95.0837 31.1694 94.8842 30.4595M94.8842 30.4595L94.9124 28.7261M94.8842 30.4595C94.1669 31.2442 91.5511 32.345 91.6308 30.6773" stroke="#CCCCCC" stroke-width="2" stroke-linecap="round" stroke-linejoin="round"/>
<path d="M97.44 26.8001C97.5468 25.2011 92.6965 24.8191 92.276 26.3161C91.9675 27.4238 93.3281 28.8667 94.6848 29.0078C96.0562 29.1505 97.3821 27.6665 97.44 26.8001Z" fill="#FF6C11"/>
<path d="M110.783 7.68391C109.631 8.84371 109.525 10.7093 110.477 11.969C111.43 13.2288 113.278 13.2816 114.463 12.242C115.615 11.0822 115.721 9.21659 114.769 7.95686C113.744 6.6553 111.936 6.52411 110.783 7.68391Z" fill="#79685C"/>
<path d="M70.7531 6.9896C69.6004 8.14941 69.4946 10.015 70.4471 11.2747C71.5118 12.4979 73.2474 12.5873 74.4326 11.5477C75.5852 10.3879 75.691 8.52227 74.7386 7.26255C73.6014 5.99754 71.8659 5.90818 70.7531 6.9896Z" fill="#79685C"/>
<path d="M79 20.1879L88 22" stroke="white" stroke-width="2" stroke-linecap="round"/>
<path d="M103 23L110.804 21.7184" stroke="white" stroke-width="2" stroke-linecap="round"/>
<defs>
<linearGradient id="paint0_linear" x1="146.261" y1="-9.41783" x2="146.261" y2="103.078" gradientUnits="userSpaceOnUse">
<stop stop-color="#F5B31C"/>
<stop offset="1" stop-color="#F5B81C"/>
</linearGradient>
</defs>
</svg>
